<svg width="41" height="41" viewBox="0 0 41 41" fill="none" xmlns="http://www.w3.org/2000/svg">
<circle cx="20.8662" cy="20.3271" r="20" fill="white"/>
<path fill-rule="evenodd" clip-rule="evenodd" d="M26.5287 21.8298C26.2727 21.6805 24.9466 20.9549 24.7008 20.8527C24.4551 20.7505 24.2733 20.6955 24.0813 20.968C23.8893 21.2404 23.344 21.8482 23.1802 22.0158C23.0163 22.1835 22.855 22.2123 22.5862 22.063C21.7937 21.7075 21.0671 21.2148 20.4383 20.6064C19.8636 20.0198 19.3762 19.3498 18.9919 18.6181C18.8434 18.3325 18.9919 18.1884 19.1327 18.0548C19.2735 17.9212 19.4143 17.7379 19.5679 17.5938C19.6844 17.4572 19.7818 17.3046 19.8572 17.1406C19.8962 17.0651 19.9166 16.981 19.9166 16.8956C19.9166 16.8102 19.8962 16.7262 19.8572 16.6507C19.7932 16.5092 19.2991 15.1155 19.0892 14.5549C18.8793 13.9943 18.6463 14.0519 18.4927 14.0467C18.3391 14.0415 18.1522 14.01 17.9807 14.0022C17.8425 14.002 17.7057 14.0305 17.5785 14.0859C17.4514 14.1412 17.3365 14.2224 17.2408 14.3244C16.9244 14.6126 16.67 14.9649 16.4937 15.3591C16.3174 15.7532 16.2231 16.1806 16.2168 16.614C16.1656 17.9841 17.0923 19.349 17.2229 19.5402C17.3535 19.7315 18.9945 22.7048 21.7209 23.9282C24.4474 25.1516 24.4653 24.777 24.9671 24.7508C25.4689 24.7246 26.5825 24.143 26.8385 23.496C27.0945 22.8489 27.1099 22.2935 27.0459 22.1861C26.9818 22.0787 26.7898 21.9896 26.5338 21.8403L26.5287 21.8298ZM21.5238 8.4248C19.6328 8.4249 17.7757 8.939 16.1426 9.91453C14.5094 10.8901 13.1588 12.292 12.2289 13.9769C11.2989 15.6619 10.8231 17.5693 10.8499 19.5042C10.8768 21.4391 11.4055 23.332 12.3818 24.9892L10.4541 30.8495L16.3653 28.9135C17.7913 29.7188 19.3785 30.1795 21.0053 30.2603C22.6321 30.3411 24.2554 30.04 25.751 29.3799C27.2465 28.7199 28.5747 27.7184 29.6337 26.4521C30.6927 25.1859 31.4546 23.6884 31.8609 22.0745C32.2673 20.4605 32.3074 18.7728 31.9781 17.1405C31.6488 15.5083 30.959 13.9747 29.9613 12.6573C28.9636 11.34 27.6846 10.2736 26.2221 9.54001C24.7596 8.80638 23.1525 8.42492 21.5238 8.4248V8.4248Z" fill="#5E50A2"/>
</svg>
