<svg width="41" height="41" viewBox="0 0 41 41" fill="none" xmlns="http://www.w3.org/2000/svg">
<circle cx="20.7861" cy="20.3271" r="20" fill="#5E50A2"/>
<path fill-rule="evenodd" clip-rule="evenodd" d="M26.4484 21.8298C26.1924 21.6805 24.8663 20.9549 24.6205 20.8527C24.3747 20.7505 24.193 20.6955 24.001 20.968C23.809 21.2404 23.2637 21.8482 23.0998 22.0158C22.936 22.1835 22.7747 22.2123 22.5059 22.063C21.7134 21.7075 20.9868 21.2148 20.358 20.6064C19.7832 20.0198 19.2959 19.3498 18.9116 18.6181C18.7631 18.3325 18.9116 18.1884 19.0524 18.0548C19.1932 17.9212 19.334 17.7379 19.4876 17.5938C19.6041 17.4572 19.7014 17.3046 19.7769 17.1406C19.8159 17.0651 19.8363 16.981 19.8363 16.8956C19.8363 16.8102 19.8159 16.7262 19.7769 16.6507C19.7129 16.5092 19.2188 15.1155 19.0089 14.5549C18.7989 13.9943 18.566 14.0519 18.4124 14.0467C18.2588 14.0415 18.0719 14.01 17.9004 14.0022C17.7622 14.002 17.6254 14.0305 17.4982 14.0859C17.3711 14.1412 17.2562 14.2224 17.1605 14.3244C16.8441 14.6126 16.5897 14.9649 16.4134 15.3591C16.2371 15.7532 16.1428 16.1806 16.1365 16.614C16.0853 17.9841 17.012 19.349 17.1426 19.5402C17.2731 19.7315 18.9141 22.7048 21.6406 23.9282C24.3671 25.1516 24.385 24.777 24.8868 24.7508C25.3885 24.7246 26.5022 24.143 26.7582 23.496C27.0142 22.8489 27.0295 22.2935 26.9655 22.1861C26.9015 22.0787 26.7095 21.9896 26.4535 21.8403L26.4484 21.8298ZM21.4435 8.4248C19.5525 8.4249 17.6954 8.939 16.0622 9.91453C14.4291 10.8901 13.0785 12.292 12.1485 13.9769C11.2186 15.6619 10.7428 17.5693 10.7696 19.5042C10.7965 21.4391 11.3252 23.332 12.3015 24.9892L10.3738 30.8495L16.285 28.9135C17.711 29.7188 19.2981 30.1795 20.925 30.2603C22.5518 30.3411 24.1751 30.04 25.6706 29.3799C27.1662 28.7199 28.4943 27.7184 29.5534 26.4521C30.6124 25.1859 31.3743 23.6884 31.7806 22.0745C32.187 20.4605 32.2271 18.7728 31.8978 17.1405C31.5685 15.5083 30.8786 13.9747 29.881 12.6573C28.8833 11.34 27.6042 10.2736 26.1418 9.54001C24.6793 8.80638 23.0722 8.42492 21.4435 8.4248V8.4248Z" fill="white"/>
</svg>
