<svg width="41" height="41" viewBox="0 0 41 41" fill="none" xmlns="http://www.w3.org/2000/svg">
<circle cx="20.8662" cy="20.3271" r="20" fill="white"/>
<path d="M29.6781 10.9476C29.0903 10.4135 26.5531 8.81931 21.2591 8.79622C21.2591 8.79622 14.9903 8.38434 11.9472 11.1407C10.2535 12.813 9.68288 15.2998 9.62032 18.3345C9.55776 21.3692 9.23363 27.1666 14.7845 28.7087C14.7845 28.7087 14.7627 33.0126 14.7602 33.3909C14.7602 33.6554 14.8022 33.8364 14.9533 33.8738C15.0621 33.9002 15.225 33.8439 15.3635 33.7058C16.2511 32.8145 19.0927 29.3863 19.0927 29.3863C22.9054 29.6353 25.9388 28.8825 26.2651 28.7759C27.0342 28.5286 31.1946 28.1713 31.8987 22.4839C32.6263 16.6215 31.6312 12.6198 29.6781 10.9476Z" fill="#5E50A2"/>
<path d="M23.9507 18.0855C23.8818 16.6974 23.1767 15.9684 21.8354 15.8984" stroke="white" stroke-linecap="round" stroke-linejoin="round"/>
<path d="M25.7664 18.6943C25.7944 17.4011 25.4114 16.3207 24.6173 15.453C23.8196 14.5822 22.7154 14.1027 21.2983 13.999" stroke="white" stroke-linecap="round" stroke-linejoin="round"/>
<path d="M27.6259 19.4215C27.6089 17.1776 26.9383 15.4102 25.6144 14.1196C24.2905 12.829 22.6439 12.1768 20.6748 12.1631" stroke="white" stroke-linecap="round" stroke-linejoin="round"/>
<path d="M21.9058 22.8258C21.9058 22.8258 22.4033 22.8678 22.6712 22.5378L23.1935 21.8807C23.4454 21.5549 24.0533 21.347 24.6487 21.6787C25.0948 21.9332 25.528 22.2098 25.9464 22.5075C26.3415 22.7981 27.1506 23.4732 27.1531 23.4732C27.5385 23.7986 27.6275 24.2764 27.3651 24.7802C27.3651 24.7831 27.363 24.7882 27.363 24.7907C27.074 25.2917 26.7071 25.7435 26.276 26.1292C26.271 26.1317 26.271 26.1342 26.2664 26.1368C25.8919 26.4497 25.5239 26.6276 25.1626 26.6704C25.1094 26.6797 25.0553 26.6831 25.0014 26.6805C24.842 26.682 24.6835 26.6576 24.532 26.6082L24.5202 26.591C23.9635 26.434 23.0339 26.041 21.4859 25.187C20.5901 24.6987 19.7373 24.1353 18.9365 23.503C18.5352 23.1862 18.1524 22.8467 17.7899 22.4861L17.7513 22.4475L17.7127 22.4089L17.674 22.3702C17.661 22.3576 17.6484 22.3446 17.6354 22.3316C17.2748 21.9692 16.9353 21.5863 16.6185 21.185C15.9863 20.3843 15.4229 19.5317 14.9345 18.636C14.0805 17.0876 13.6875 16.1589 13.5305 15.6013L13.5133 15.5896C13.4641 15.438 13.4398 15.2795 13.4415 15.1202C13.4385 15.0662 13.4418 15.0121 13.4511 14.9589C13.4962 14.5981 13.6744 14.2299 13.9856 13.8543C13.9881 13.8497 13.9906 13.8497 13.9932 13.8446C14.3787 13.4136 14.8306 13.0468 15.3317 12.7581C15.3342 12.7581 15.3392 12.7555 15.3422 12.7555C15.846 12.4931 16.3238 12.5821 16.6488 12.9655C16.6513 12.968 17.3251 13.7771 17.6144 14.1721C17.9122 14.591 18.1888 15.0246 18.4432 15.4712C18.7749 16.0661 18.5671 16.6753 18.2413 16.9264L17.5842 17.4487C17.2525 17.7166 17.2962 18.2141 17.2962 18.2141C17.2962 18.2141 18.2694 21.8975 21.9058 22.8258Z" fill="white"/>
</svg>
