<svg width="41" height="41" viewBox="0 0 41 41" fill="none" xmlns="http://www.w3.org/2000/svg">
<circle cx="20.7861" cy="20.3271" r="20" fill="#5E50A2"/>
<path d="M29.5982 10.9476C29.0104 10.4135 26.4733 8.81931 21.1793 8.79622C21.1793 8.79622 14.9104 8.38434 11.8673 11.1407C10.1736 12.813 9.60305 15.2998 9.54049 18.3345C9.47793 21.3692 9.1538 27.1666 14.7047 28.7087C14.7047 28.7087 14.6829 33.0126 14.6804 33.3909C14.6804 33.6554 14.7223 33.8364 14.8735 33.8738C14.9822 33.9002 15.1451 33.8439 15.2837 33.7058C16.1713 32.8145 19.0128 29.3863 19.0128 29.3863C22.8255 29.6353 25.859 28.8825 26.1852 28.7759C26.9544 28.5286 31.1148 28.1713 31.8188 22.4839C32.5465 16.6215 31.5514 12.6198 29.5982 10.9476Z" fill="white"/>
<path d="M23.8708 18.0855C23.802 16.6974 23.0969 15.9684 21.7556 15.8984" stroke="#5E50A2" stroke-linecap="round" stroke-linejoin="round"/>
<path d="M25.6866 18.6943C25.7146 17.4011 25.3315 16.3207 24.5375 15.453C23.7397 14.5822 22.6355 14.1027 21.2185 13.999" stroke="#5E50A2" stroke-linecap="round" stroke-linejoin="round"/>
<path d="M27.5459 19.4215C27.5288 17.1776 26.8583 15.4102 25.5343 14.1196C24.2104 12.829 22.5638 12.1768 20.5947 12.1631" stroke="#5E50A2" stroke-linecap="round" stroke-linejoin="round"/>
<path d="M21.8259 22.8258C21.8259 22.8258 22.3235 22.8678 22.5913 22.5378L23.1136 21.8807C23.3655 21.5549 23.9735 21.347 24.5688 21.6787C25.015 21.9332 25.4481 22.2098 25.8666 22.5075C26.2617 22.7981 27.0708 23.4732 27.0733 23.4732C27.4587 23.7986 27.5477 24.2764 27.2853 24.7802C27.2853 24.7831 27.2832 24.7882 27.2832 24.7907C26.9942 25.2917 26.6273 25.7435 26.1962 26.1292C26.1912 26.1317 26.1912 26.1342 26.1865 26.1368C25.812 26.4497 25.4441 26.6276 25.0827 26.6704C25.0295 26.6797 24.9755 26.6831 24.9215 26.6805C24.7622 26.682 24.6036 26.6576 24.4521 26.6082L24.4404 26.591C23.8836 26.434 22.9541 26.041 21.4061 25.187C20.5103 24.6987 19.6574 24.1353 18.8567 23.503C18.4554 23.1862 18.0725 22.8467 17.7101 22.4861L17.6715 22.4475L17.6328 22.4089L17.5942 22.3702C17.5812 22.3576 17.5686 22.3446 17.5556 22.3316C17.195 21.9692 16.8554 21.5863 16.5387 21.185C15.9065 20.3843 15.3431 19.5317 14.8547 18.636C14.0007 17.0876 13.6077 16.1589 13.4507 15.6013L13.4334 15.5896C13.3842 15.438 13.36 15.2795 13.3616 15.1202C13.3587 15.0662 13.3619 15.0121 13.3713 14.9589C13.4164 14.5981 13.5945 14.2299 13.9058 13.8543C13.9083 13.8497 13.9108 13.8497 13.9133 13.8446C14.2989 13.4136 14.7507 13.0468 15.2518 12.7581C15.2544 12.7581 15.2594 12.7555 15.2623 12.7555C15.7662 12.4931 16.244 12.5821 16.5689 12.9655C16.5714 12.968 17.2453 13.7771 17.5346 14.1721C17.8324 14.591 18.109 15.0246 18.3634 15.4712C18.6951 16.0661 18.4872 16.6753 18.1614 16.9264L17.5044 17.4487C17.1727 17.7166 17.2163 18.2141 17.2163 18.2141C17.2163 18.2141 18.1896 21.8975 21.8259 22.8258Z" fill="#5E50A2"/>
</svg>
