<svg width="60" height="61" viewBox="0 0 60 61" fill="none" xmlns="http://www.w3.org/2000/svg">
<circle cx="30" cy="30.3279" r="30" fill="#65C6A2"/>
<path d="M34.5 23.5786C33.3289 23.275 31.7016 22.8286 30.397 22.8286C23.9645 22.8286 18.75 26.83 18.75 31.7661C18.75 34.6026 20.4719 37.1304 23.1574 38.7678L22.4298 41.1675C22.2545 41.7454 22.6871 42.3286 23.291 42.3286H25.9372C26.132 42.3286 26.3216 42.2655 26.4774 42.1485L28.5693 40.5786H32.2246L34.3165 42.1485C34.4724 42.2655 34.662 42.3286 34.8568 42.3286H37.503C38.1069 42.3286 38.5395 41.7454 38.3641 41.1675L37.6367 38.7678C39.2366 37.7923 40.4944 36.5007 41.25 35.0161" stroke="white" stroke-width="2.5" stroke-linecap="round" stroke-linejoin="round"/>
<path d="M34.5 23.5786L41.25 21.3286L41.124 26.7711L44.25 28.0786V33.3286L41.3612 34.8286" stroke="white" stroke-width="2.5" stroke-linecap="round" stroke-linejoin="round"/>
<path d="M36 30.3286C35.5859 30.3286 35.25 29.9928 35.25 29.5786C35.25 29.1645 35.5859 28.8286 36 28.8286C36.4141 28.8286 36.75 29.1645 36.75 29.5786C36.75 29.9928 36.4141 30.3286 36 30.3286Z" fill="white" stroke="white" stroke-width="2.5" stroke-linecap="round" stroke-linejoin="round"/>
<path d="M15.75 25.8286C15.75 25.8286 15.75 29.4286 18.75 30.3286" stroke="white" stroke-width="2.5" stroke-linecap="round" stroke-linejoin="round"/>
<path d="M31.9512 22.4581C32.1447 21.9006 32.25 21.3007 32.25 20.6757C32.25 17.7226 29.8995 15.3286 27 15.3286C24.1005 15.3286 21.75 17.7226 21.75 20.6757C21.75 22.0882 22.2877 23.3727 23.1661 24.3286" stroke="white" stroke-width="2.5" stroke-linejoin="round"/>
</svg>
