<svg width="60" height="61" viewBox="0 0 60 61" fill="none" xmlns="http://www.w3.org/2000/svg">
<circle cx="30" cy="30.3279" r="30" fill="#65C6A2"/>
<path d="M42.9778 16.7507H36.9902L37.7402 24.2507C37.7402 24.2507 39.2402 25.7507 41.4902 25.7507C43.1057 25.7507 44.2057 24.9774 44.6977 24.5413C44.8937 24.3675 44.9654 24.1021 44.9224 23.8436L43.8655 17.5028C43.7932 17.0688 43.4177 16.7507 42.9778 16.7507Z" stroke="white" stroke-width="2.5"/>
<path d="M36.9902 16.7507L37.7402 24.2507C37.7402 24.2507 36.2402 25.7507 33.9902 25.7507C31.7402 25.7507 30.2402 24.2507 30.2402 24.2507V16.7507H36.9902Z" stroke="white" stroke-width="2.5"/>
<path d="M30.2403 16.7507V24.2507C30.2403 24.2507 28.7402 25.7507 26.4902 25.7507C24.2402 25.7507 22.7402 24.2507 22.7402 24.2507L23.4902 16.7507H30.2403Z" stroke="white" stroke-width="2.5"/>
<path d="M23.4904 16.7507H17.5028C17.0628 16.7507 16.6874 17.0688 16.615 17.5028L15.5582 23.8437C15.5151 24.1021 15.5869 24.3675 15.7829 24.5413C16.2748 24.9774 17.3748 25.7507 18.9903 25.7507C21.2403 25.7507 22.7404 24.2507 22.7404 24.2507L23.4904 16.7507Z" stroke="white" stroke-width="2.5"/>
<path d="M16.7502 25.7507V40.7507C16.7502 42.4076 18.0934 43.7507 19.7502 43.7507H40.7502C42.4071 43.7507 43.7502 42.4076 43.7502 40.7507V25.7507" stroke="white" stroke-width="2.5"/>
<path d="M34.5 43.7507V34.7507C34.5 33.0938 33.1569 31.7507 31.5 31.7507H28.5C26.8431 31.7507 25.5 33.0938 25.5 34.7507V43.7507" stroke="white" stroke-width="2.5" stroke-miterlimit="16"/>
</svg>
