<svg width="60" height="61" viewBox="0 0 60 61" fill="none" xmlns="http://www.w3.org/2000/svg">
<circle cx="30" cy="30.3279" r="30" fill="#65C6A2"/>
<path d="M22.5 34.8279C23.3284 34.8279 24 34.1563 24 33.3279C24 32.4994 23.3284 31.8279 22.5 31.8279C21.6716 31.8279 21 32.4994 21 33.3279C21 34.1563 21.6716 34.8279 22.5 34.8279Z" fill="white" stroke="white" stroke-width="2.5" stroke-linecap="round" stroke-linejoin="round"/>
<path d="M15 25.8279H45M15 25.8279V20.7279C15 20.2308 15.4029 19.8279 15.9 19.8279H44.1C44.5971 19.8279 45 20.2308 45 20.7279V25.8279H15ZM15 25.8279V39.9279C15 40.425 15.4029 40.8279 15.9 40.8279H44.1C44.5971 40.8279 45 40.425 45 39.9279V25.8279H15Z" stroke="white" stroke-width="2.5" stroke-linecap="round" stroke-linejoin="round"/>
</svg>
