<svg width="60" height="61" viewBox="0 0 60 61" fill="none" xmlns="http://www.w3.org/2000/svg">
<circle cx="30" cy="30.3279" r="30" fill="#65C6A2"/>
<path d="M18.9524 32.4505L20.5109 29.146C20.711 28.7218 21.289 28.7218 21.4891 29.146L23.0476 32.4505L26.5329 32.9838C26.9801 33.0522 27.1582 33.6274 26.8345 33.9576L24.313 36.528L24.9081 40.1593C24.9846 40.6257 24.5168 40.9812 24.1167 40.761L21 39.0456L17.8833 40.761C17.4832 40.9812 17.0154 40.6257 17.0919 40.1593L17.6869 36.528L15.1654 33.9576C14.8417 33.6274 15.0199 33.0522 15.4671 32.9838L18.9524 32.4505Z" stroke="white" stroke-width="2.5" stroke-linecap="round" stroke-linejoin="round"/>
<path d="M36.9523 32.4505L38.511 29.146C38.7109 28.7218 39.289 28.7218 39.489 29.146L41.0476 32.4505L44.5329 32.9838C44.98 33.0522 45.1582 33.6274 44.8345 33.9576L42.313 36.528L42.9081 40.1593C42.9846 40.6257 42.5169 40.9812 42.1167 40.761L39 39.0456L35.8833 40.761C35.4831 40.9812 35.0154 40.6257 35.0919 40.1593L35.6869 36.528L33.1654 33.9576C32.8417 33.6274 33.0199 33.0522 33.4671 32.9838L36.9523 32.4505Z" stroke="white" stroke-width="2.5" stroke-linecap="round" stroke-linejoin="round"/>
<path d="M27.9523 18.9506L29.511 15.646C29.7109 15.2218 30.289 15.2218 30.489 15.646L32.0476 18.9506L35.5329 19.4838C35.98 19.5522 36.1582 20.1275 35.8345 20.4575L33.313 23.0279L33.9081 26.6593C33.9846 27.1257 33.5169 27.4812 33.1167 27.261L30 25.5455L26.8833 27.261C26.4832 27.4812 26.0154 27.1257 26.0919 26.6593L26.6869 23.0279L24.1654 20.4575C23.8417 20.1275 24.0199 19.5522 24.4671 19.4838L27.9523 18.9506Z" stroke="white" stroke-width="2.5" stroke-linecap="round" stroke-linejoin="round"/>
</svg>
