<svg width="61" height="61" viewBox="0 0 61 61" fill="none" xmlns="http://www.w3.org/2000/svg">
<circle cx="30.8665" cy="30.3274" r="30" fill="#65C6A2"/>
<path d="M27.8665 40.8274V19.8274M33.8665 19.8274H44.9665C45.4636 19.8274 45.8665 20.2303 45.8665 20.7274V39.9274C45.8665 40.4245 45.4636 40.8274 44.9665 40.8274H33.8665V19.8274ZM33.8665 19.8274V40.8274V19.8274ZM33.8665 19.8274H27.8665H33.8665ZM33.8665 40.8274H27.8665H33.8665ZM27.8665 40.8274H16.7665C16.2694 40.8274 15.8665 40.4245 15.8665 39.9274V20.7274C15.8665 20.2303 16.2694 19.8274 16.7665 19.8274H27.8665V40.8274Z" stroke="white" stroke-width="2.5" stroke-linecap="round" stroke-linejoin="round"/>
<path d="M23.3665 27.1006C23.3665 26.4794 22.7467 26.0529 22.2424 26.4155C21.1063 27.2324 20.3665 28.5657 20.3665 30.0717C20.3665 31.5777 21.1063 32.911 22.2424 33.7278C22.7467 34.0903 23.3665 33.664 23.3665 33.0429C23.3665 31.1619 23.3665 29.3928 23.3665 27.1006Z" fill="white"/>
<path d="M38.3665 27.1006C38.3665 26.4794 38.9863 26.0529 39.4906 26.4155C40.6267 27.2324 41.3665 28.5657 41.3665 30.0717C41.3665 31.5777 40.6267 32.911 39.4906 33.7278C38.9863 34.0903 38.3665 33.664 38.3665 33.0429C38.3665 31.1619 38.3665 29.3928 38.3665 27.1006Z" fill="white"/>
</svg>
