<svg width="60" height="61" viewBox="0 0 60 61" fill="none" xmlns="http://www.w3.org/2000/svg">
<circle cx="30.0002" cy="30.3279" r="30" fill="#65C6A2"/>
<path d="M24.3544 22.0786L43.5002 38.5786M24.3544 22.0786C25.067 21.2825 25.5002 20.2311 25.5002 19.0786C25.5002 16.5933 23.4855 14.5786 21.0002 14.5786C18.515 14.5786 16.5002 16.5933 16.5002 19.0786C16.5002 21.5639 18.515 23.5786 21.0002 23.5786C22.333 23.5786 23.5304 22.9992 24.3544 22.0786Z" stroke="white" stroke-width="2.5" stroke-linecap="round" stroke-linejoin="round"/>
<path d="M24.3544 37.0786L43.5002 20.5786M24.3544 37.0786C25.067 37.8748 25.5002 38.926 25.5002 40.0786C25.5002 42.564 23.4855 44.5786 21.0002 44.5786C18.515 44.5786 16.5002 42.564 16.5002 40.0786C16.5002 37.5933 18.515 35.5786 21.0002 35.5786C22.333 35.5786 23.5304 36.1581 24.3544 37.0786Z" stroke="white" stroke-width="2.5" stroke-linecap="round" stroke-linejoin="round"/>
</svg>
