<svg width="41" height="41" viewBox="0 0 41 41" fill="none" xmlns="http://www.w3.org/2000/svg">
<circle cx="20.8665" cy="20.3271" r="20" fill="#65C6A2"/>
<path d="M28.8665 20.3271V29.7271C28.8665 30.0585 28.5979 30.3271 28.2665 30.3271H13.4665C13.1351 30.3271 12.8665 30.0585 12.8665 29.7271V20.3271" stroke="white" stroke-width="1.5" stroke-linecap="round" stroke-linejoin="round"/>
<path d="M30.2665 15.3271H11.4665C11.1351 15.3271 10.8665 15.5958 10.8665 15.9271V19.7271C10.8665 20.0585 11.1351 20.3271 11.4665 20.3271H30.2665C30.5979 20.3271 30.8665 20.0585 30.8665 19.7271V15.9271C30.8665 15.5958 30.5979 15.3271 30.2665 15.3271Z" stroke="white" stroke-width="1.5" stroke-linecap="round" stroke-linejoin="round"/>
<path d="M20.8665 30.3271V15.3271" stroke="white" stroke-width="1.5" stroke-linecap="round" stroke-linejoin="round"/>
<path d="M20.8665 15.3271H16.3665C15.7034 15.3271 15.0675 15.0638 14.5987 14.5949C14.1298 14.1261 13.8665 13.4902 13.8665 12.8271C13.8665 12.1641 14.1298 11.5282 14.5987 11.0594C15.0675 10.5905 15.7034 10.3271 16.3665 10.3271C19.8665 10.3271 20.8665 15.3271 20.8665 15.3271Z" stroke="white" stroke-width="1.5" stroke-linecap="round" stroke-linejoin="round"/>
<path d="M20.8665 15.3271H25.3665C26.0295 15.3271 26.6654 15.0638 27.1343 14.5949C27.6031 14.1261 27.8665 13.4902 27.8665 12.8271C27.8665 12.1641 27.6031 11.5282 27.1343 11.0594C26.6654 10.5905 26.0295 10.3271 25.3665 10.3271C21.8665 10.3271 20.8665 15.3271 20.8665 15.3271Z" stroke="white" stroke-width="1.5" stroke-linecap="round" stroke-linejoin="round"/>
</svg>
