<svg width="47" height="49" viewBox="0 0 47 49" fill="none" xmlns="http://www.w3.org/2000/svg">
<path d="M6.10352e-05 15.6797C6.10352e-05 13.3477 1.61217 11.3254 3.88551 10.8055L37.1894 3.19016C40.3199 2.47433 43.3039 4.85304 43.3039 8.06436V34.6606C43.3039 36.9926 41.6918 39.015 39.4185 39.5348L6.1146 47.1502C2.98409 47.866 6.10352e-05 45.4873 6.10352e-05 42.276V15.6797Z" fill="#5E50A2"/>
<path d="M6.10352e-05 15.7505C6.10352e-05 12.9891 2.23864 10.7505 5.00006 10.7505H41.068C43.8295 10.7505 46.068 12.9891 46.068 15.7505V42.6049C46.068 45.3663 43.8295 47.6049 41.068 47.6049H5.00006C2.23863 47.6049 6.10352e-05 45.3663 6.10352e-05 42.6049V15.7505Z" fill="#BDB6DD"/>
<path d="M27.6409 29.1771C27.6409 26.6328 29.7034 24.5703 32.2477 24.5703H46.0681V33.7839H32.2477C29.7034 33.7839 27.6409 31.7214 27.6409 29.1771Z" fill="#5E50A2"/>
<circle cx="32.0548" cy="29.1772" r="2.26748" fill="#BDB6DD"/>
<circle cx="23.0341" cy="10.7499" r="9.54822" fill="#5E50A2" stroke="white" stroke-width="1.5"/>
<path d="M23.0339 6.82715V14.673" stroke="#65C6A2" stroke-width="1.5" stroke-linecap="round"/>
<path d="M19.111 10.7505L26.9569 10.7505" stroke="#65C6A2" stroke-width="1.5" stroke-linecap="round"/>
</svg>
