<svg width="47" height="49" viewBox="0 0 47 49" fill="none" xmlns="http://www.w3.org/2000/svg">
<path d="M0.866455 15.6275C0.866455 13.2955 2.47856 11.2731 4.7519 10.7533L38.0558 3.13792C41.1863 2.42208 44.1703 4.8008 44.1703 8.01212V34.6084C44.1703 36.9404 42.5582 38.9627 40.2849 39.4826L6.981 47.098C3.85048 47.8138 0.866455 45.4351 0.866455 42.2238V15.6275Z" fill="white"/>
<path d="M1.61646 15.6982C1.61646 13.351 3.51925 11.4482 5.86646 11.4482H41.9344C44.2816 11.4482 46.1844 13.351 46.1844 15.6982V42.5526C46.1844 44.8998 44.2816 46.8026 41.9344 46.8026H5.86645C3.51924 46.8026 1.61646 44.8998 1.61646 42.5526V15.6982Z" fill="white" stroke="#5E50A2" stroke-width="1.5"/>
<path d="M28.5073 29.1249C28.5073 26.5806 30.5698 24.5181 33.1141 24.5181H46.9345V33.7317H33.1141C30.5698 33.7317 28.5073 31.6691 28.5073 29.1249Z" fill="#5E50A2"/>
<circle cx="32.9212" cy="29.1249" r="2.26748" fill="white"/>
<circle cx="23.9005" cy="10.6976" r="9.54822" fill="white" stroke="#5E50A2" stroke-width="1.5"/>
<path d="M23.9003 6.7749V14.6208" stroke="#65C6A2" stroke-width="1.5" stroke-linecap="round"/>
<path d="M19.9774 10.6982L27.8232 10.6982" stroke="#65C6A2" stroke-width="1.5" stroke-linecap="round"/>
</svg>
