<svg width="40" height="41" viewBox="0 0 40 41" fill="none" xmlns="http://www.w3.org/2000/svg">
<circle cx="20" cy="20.5054" r="20" fill="white"/>
<path d="M28.8121 11.1258C28.2243 10.5917 25.6871 8.99753 20.3932 8.97444C20.3932 8.97444 14.1243 8.56256 11.0812 11.3189C9.3875 12.9912 8.81691 15.478 8.75435 18.5127C8.6918 21.5474 8.36767 27.3448 13.9186 28.8869C13.9186 28.8869 13.8967 33.1909 13.8942 33.5691C13.8942 33.8337 13.9362 34.0146 14.0874 34.052C14.1961 34.0784 14.359 34.0222 14.4976 33.884C15.3851 32.9927 18.2267 29.5646 18.2267 29.5646C22.0394 29.8135 25.0729 29.0607 25.3991 28.9541C26.1683 28.7068 30.3286 28.3495 31.0327 22.6621C31.7603 16.7997 30.7653 12.7981 28.8121 11.1258Z" fill="#5E50A2"/>
<path d="M23.0847 18.2637C23.0159 16.8756 22.3108 16.1466 20.9695 16.0767" stroke="white" stroke-linecap="round" stroke-linejoin="round"/>
<path d="M24.9005 18.8725C24.9285 17.5793 24.5454 16.4989 23.7513 15.6312C22.9536 14.7604 21.8494 14.281 20.4324 14.1772" stroke="white" stroke-linecap="round" stroke-linejoin="round"/>
<path d="M26.7597 19.5998C26.7426 17.3558 26.0721 15.5885 24.7482 14.2978C23.4242 13.0072 21.7777 12.355 19.8086 12.3413" stroke="white" stroke-linecap="round" stroke-linejoin="round"/>
<path d="M21.0398 23.004C21.0398 23.004 21.5373 23.046 21.8052 22.716L22.3275 22.0589C22.5794 21.7331 23.1874 21.5253 23.7827 21.857C24.2289 22.1114 24.662 22.388 25.0805 22.6857C25.4756 22.9763 26.2846 23.6514 26.2871 23.6514C26.6726 23.9768 26.7616 24.4546 26.4992 24.9584C26.4992 24.9614 26.4971 24.9664 26.4971 24.9689C26.2081 25.4699 25.8411 25.9218 25.4101 26.3074C25.405 26.3099 25.405 26.3125 25.4004 26.315C25.0259 26.6279 24.658 26.8058 24.2966 26.8486C24.2434 26.8579 24.1893 26.8613 24.1354 26.8587C23.976 26.8602 23.8175 26.8358 23.666 26.7865L23.6542 26.7693C23.0975 26.6122 22.1679 26.2192 20.6199 25.3653C19.7241 24.8769 18.8713 24.3135 18.0706 23.6812C17.6692 23.3645 17.2864 23.025 16.924 22.6643L16.8853 22.6257L16.8467 22.5871L16.8081 22.5485C16.7951 22.5359 16.7825 22.5228 16.7694 22.5098C16.4088 22.1474 16.0693 21.7645 15.7526 21.3632C15.1203 20.5626 14.557 19.7099 14.0685 18.8143C13.2145 17.2658 12.8215 16.3371 12.6645 15.7795L12.6473 15.7678C12.5981 15.6163 12.5738 15.4577 12.5755 15.2984C12.5726 15.2445 12.5758 15.1904 12.5852 15.1372C12.6302 14.7764 12.8084 14.4082 13.1196 14.0325C13.1222 14.0279 13.1247 14.0279 13.1272 14.0229C13.5128 13.5918 13.9646 13.225 14.4657 12.9363C14.4682 12.9363 14.4733 12.9338 14.4762 12.9338C14.98 12.6714 15.4578 12.7604 15.7828 13.1437C15.7853 13.1462 16.4592 13.9553 16.7485 14.3504C17.0462 14.7693 17.3228 15.2028 17.5772 15.6494C17.9089 16.2443 17.7011 16.8535 17.3753 17.1046L16.7182 17.6269C16.3865 17.8948 16.4302 18.3923 16.4302 18.3923C16.4302 18.3923 17.4034 22.0757 21.0398 23.004Z" fill="white"/>
</svg>
