<svg width="41" height="41" viewBox="0 0 41 41" fill="none" xmlns="http://www.w3.org/2000/svg">
<circle cx="20.8661" cy="20.5" r="20" fill="#65C6A2"/>
<path d="M29.6779 11.1204C29.0901 10.5864 26.553 8.99216 21.259 8.96907C21.259 8.96907 14.9901 8.55719 11.947 11.3135C10.2533 12.9858 9.68276 15.4726 9.6202 18.5073C9.55764 21.5421 9.23351 27.3394 14.7844 28.8815C14.7844 28.8815 14.7626 33.1855 14.7601 33.5638C14.7601 33.8283 14.8021 34.0092 14.9532 34.0466C15.0619 34.0731 15.2248 34.0168 15.3634 33.8787C16.251 32.9873 19.0926 29.5592 19.0926 29.5592C22.9053 29.8082 25.9387 29.0554 26.2649 28.9487C27.0341 28.7014 31.1945 28.3441 31.8986 22.6568C32.6262 16.7943 31.6311 12.7927 29.6779 11.1204Z" fill="white"/>
<path d="M23.9506 18.2578C23.8817 16.8698 23.1766 16.1408 21.8353 16.0708" stroke="#65C6A2" stroke-linecap="round" stroke-linejoin="round"/>
<path d="M25.7663 18.8666C25.7943 17.5735 25.4113 16.493 24.6172 15.6253C23.8194 14.7546 22.7152 14.2751 21.2982 14.1714" stroke="#65C6A2" stroke-linecap="round" stroke-linejoin="round"/>
<path d="M27.6258 19.5939C27.6087 17.3499 26.9382 15.5826 25.6143 14.292C24.2903 13.0013 22.6438 12.3492 20.6747 12.3354" stroke="#65C6A2" stroke-linecap="round" stroke-linejoin="round"/>
<path d="M21.9056 22.9986C21.9056 22.9986 22.4032 23.0406 22.671 22.7106L23.1933 22.0535C23.4452 21.7277 24.0532 21.5199 24.6486 21.8516C25.0947 22.106 25.5278 22.3826 25.9463 22.6804C26.3414 22.9709 27.1505 23.646 27.153 23.646C27.5384 23.9714 27.6274 24.4492 27.365 24.9531C27.365 24.956 27.3629 24.961 27.3629 24.9635C27.0739 25.4646 26.707 25.9164 26.2759 26.302C26.2709 26.3046 26.2709 26.3071 26.2663 26.3096C25.8917 26.6225 25.5238 26.8004 25.1625 26.8432C25.1093 26.8526 25.0552 26.8559 25.0012 26.8533C24.8419 26.8549 24.6834 26.8305 24.5318 26.7811L24.5201 26.7639C23.9634 26.6069 23.0338 26.2139 21.4858 25.3599C20.59 24.8715 19.7371 24.3082 18.9364 23.6759C18.5351 23.3591 18.1522 23.0196 17.7898 22.659L17.7512 22.6203L17.7125 22.5817L17.6739 22.5431C17.6609 22.5305 17.6483 22.5175 17.6353 22.5045C17.2747 22.142 16.9352 21.7592 16.6184 21.3578C15.9862 20.5572 15.4228 19.7045 14.9344 18.8089C14.0804 17.2605 13.6874 16.3317 13.5304 15.7742L13.5132 15.7624C13.4639 15.6109 13.4397 15.4523 13.4414 15.293C13.4384 15.2391 13.4417 15.185 13.451 15.1318C13.4961 14.771 13.6742 14.4028 13.9855 14.0272C13.988 14.0225 13.9905 14.0225 13.993 14.0175C14.3786 13.5864 14.8304 13.2196 15.3315 12.9309C15.3341 12.9309 15.3391 12.9284 15.342 12.9284C15.8459 12.666 16.3237 12.755 16.6486 13.1383C16.6512 13.1408 17.325 13.9499 17.6143 14.345C17.9121 14.7639 18.1887 15.1974 18.4431 15.644C18.7748 16.239 18.567 16.8482 18.2411 17.0992L17.5841 17.6215C17.2524 17.8894 17.296 18.3869 17.296 18.3869C17.296 18.3869 18.2693 22.0703 21.9056 22.9986Z" fill="#65C6A2"/>
</svg>
