<svg width="40" height="41" viewBox="0 0 40 41" fill="none" xmlns="http://www.w3.org/2000/svg">
<circle cx="20" cy="20.5054" r="20" fill="white"/>
<path fill-rule="evenodd" clip-rule="evenodd" d="M25.6623 22.0081C25.4063 21.8587 24.0801 21.1331 23.8344 21.0309C23.5886 20.9287 23.4069 20.8737 23.2148 21.1462C23.0228 21.4186 22.4775 22.0264 22.3137 22.1941C22.1499 22.3617 21.9886 22.3905 21.7198 22.2412C20.9273 21.8857 20.2006 21.393 19.5719 20.7847C18.9971 20.198 18.5098 19.5281 18.1254 18.7963C17.977 18.5108 18.1254 18.3667 18.2663 18.2331C18.4071 18.0995 18.5479 17.9161 18.7015 17.772C18.8179 17.6354 18.9153 17.4828 18.9907 17.3188C19.0298 17.2433 19.0501 17.1592 19.0501 17.0738C19.0501 16.9885 19.0298 16.9044 18.9907 16.8289C18.9267 16.6874 18.4327 15.2938 18.2227 14.7331C18.0128 14.1725 17.7798 14.2302 17.6262 14.2249C17.4726 14.2197 17.2857 14.1882 17.1142 14.1804C16.976 14.1802 16.8392 14.2087 16.7121 14.2641C16.5849 14.3195 16.4701 14.4006 16.3744 14.5026C16.058 14.7908 15.8035 15.1432 15.6273 15.5373C15.451 15.9315 15.3567 16.3588 15.3503 16.7922C15.2991 18.1623 16.2259 19.5272 16.3564 19.7184C16.487 19.9097 18.128 22.883 20.8545 24.1065C23.5809 25.3299 23.5989 24.9552 24.1006 24.929C24.6024 24.9028 25.716 24.3213 25.972 23.6742C26.228 23.0271 26.2434 22.4718 26.1794 22.3643C26.1154 22.2569 25.9234 22.1679 25.6674 22.0185L25.6623 22.0081ZM20.6573 8.60303C18.7663 8.60312 16.9093 9.11723 15.2761 10.0928C13.643 11.0683 12.2923 12.4702 11.3624 14.1552C10.4325 15.8401 9.95662 17.7476 9.98349 19.6825C10.0104 21.6174 10.539 23.5102 11.5154 25.1674L9.58765 31.0277L15.4988 29.0918C16.9248 29.897 18.512 30.3577 20.1388 30.4385C21.7656 30.5194 23.389 30.2182 24.8845 29.5582C26.3801 28.8981 27.7082 27.8966 28.7672 26.6303C29.8263 25.3641 30.5881 23.8667 30.9945 22.2527C31.4008 20.6387 31.4409 18.951 31.1117 17.3187C30.7824 15.6865 30.0925 14.153 29.0948 12.8356C28.0971 11.5182 26.8181 10.4519 25.3556 9.71823C23.8932 8.98461 22.2861 8.60314 20.6573 8.60303V8.60303Z" fill="#5E50A2"/>
</svg>
