<svg width="41" height="41" viewBox="0 0 41 41" fill="none" xmlns="http://www.w3.org/2000/svg">
<circle cx="20.8661" cy="20.5" r="20" fill="#65C6A2"/>
<path fill-rule="evenodd" clip-rule="evenodd" d="M26.5281 22.0027C26.2721 21.8534 24.946 21.1277 24.7002 21.0255C24.4545 20.9234 24.2727 20.8684 24.0807 21.1408C23.8887 21.4133 23.3434 22.021 23.1795 22.1887C23.0157 22.3564 22.8544 22.3852 22.5856 22.2358C21.7931 21.8804 21.0665 21.3876 20.4377 20.7793C19.863 20.1926 19.3756 19.5227 18.9913 18.7909C18.8428 18.5054 18.9913 18.3613 19.1321 18.2277C19.2729 18.0941 19.4137 17.9107 19.5673 17.7666C19.6838 17.63 19.7811 17.4775 19.8566 17.3134C19.8956 17.2379 19.916 17.1539 19.916 17.0685C19.916 16.9831 19.8956 16.899 19.8566 16.8235C19.7926 16.6821 19.2985 15.2884 19.0886 14.7278C18.8786 14.1672 18.6457 14.2248 18.4921 14.2195C18.3385 14.2143 18.1516 14.1829 17.9801 14.175C17.8419 14.1749 17.7051 14.2033 17.5779 14.2587C17.4508 14.3141 17.3359 14.3952 17.2402 14.4972C16.9238 14.7854 16.6694 15.1378 16.4931 15.5319C16.3168 15.9261 16.2225 16.3534 16.2162 16.7869C16.165 18.157 17.0917 19.5218 17.2223 19.7131C17.3529 19.9043 18.9939 22.8777 21.7203 24.1011C24.4468 25.3245 24.4647 24.9499 24.9665 24.9237C25.4682 24.8975 26.5819 24.3159 26.8379 23.6688C27.0939 23.0218 27.1092 22.4664 27.0452 22.359C26.9812 22.2516 26.7892 22.1625 26.5332 22.0132L26.5281 22.0027ZM21.5232 8.59766C19.6322 8.59775 17.7751 9.11185 16.1419 10.0874C14.5088 11.0629 13.1582 12.4648 12.2283 14.1498C11.2983 15.8347 10.8225 17.7422 10.8493 19.6771C10.8762 21.612 11.4049 23.5048 12.3812 25.1621L10.4535 31.0223L16.3647 29.0864C17.7907 29.8916 19.3779 30.3523 21.0047 30.4331C22.6315 30.514 24.2548 30.2129 25.7504 29.5528C27.2459 28.8927 28.574 27.8912 29.6331 26.625C30.6921 25.3587 31.454 23.8613 31.8603 22.2473C32.2667 20.6334 32.3068 18.9456 31.9775 17.3134C31.6482 15.6811 30.9583 14.1476 29.9607 12.8302C28.963 11.5128 27.684 10.4465 26.2215 9.71286C24.759 8.97924 23.1519 8.59777 21.5232 8.59766V8.59766Z" fill="white"/>
</svg>
